<svg xmlns:xlink="http://www.w3.org/1999/xlink" version="1.1" class="highcharts-root" style="font-family: ui-sans-serif, -apple-system, BlinkMacSystemFont, &quot;Segoe UI Variable Display&quot;, &quot;Segoe UI&quot;, Helvetica, &quot;Apple Color Emoji&quot;, Arial, sans-serif, &quot;Segoe UI Emoji&quot;, &quot;Segoe UI Symbol&quot;; font-size: 12px; cursor: default;" xmlns="http://www.w3.org/2000/svg" width="800" height="500" viewBox="0 0 800 500" aria-label="Interactive chart" aria-hidden="false"><desc aria-hidden="true">Created with Highcharts 11.4.1</desc><defs aria-hidden="true"><filter id="highcharts-drop-shadow-53"><feDropShadow dx="1" dy="1" flood-color="#000000" flood-opacity="0.75" stdDeviation="2.5"></feDropShadow></filter><clipPath id="highcharts-yc51n61-748-"><rect x="0" y="0" width="441" height="526" fill="none"></rect></clipPath><filter id="highcharts-drop-shadow-53-offsetx--1-offsety--1"><feDropShadow dx="-1" dy="-1" flood-color="#000000" flood-opacity="0.75" stdDeviation="2.5"></feDropShadow></filter></defs><rect fill="transparent" class="highcharts-background" filter="none" x="0" y="0" width="800" height="500" rx="0" ry="0" aria-hidden="true"></rect><rect fill="none" class="highcharts-plot-background" x="264" y="20" width="526" height="441" filter="none" aria-hidden="true"></rect><g class="highcharts-grid highcharts-yaxis-grid" data-z-index="1" aria-hidden="true"><path fill="none" stroke="rgb(84, 72, 49)" stroke-opacity=" 0.15" stroke-width="1" stroke-dasharray="1,3" data-z-index="1" class="highcharts-grid-line" d="M 263.5 20 L 263.5 461" opacity="1"></path><path fill="none" stroke="rgb(84, 72, 49)" stroke-opacity=" 0.15" stroke-width="1" stroke-dasharray="1,3" data-z-index="1" class="highcharts-grid-line" d="M 395.5 20 L 395.5 461" opacity="1"></path><path fill="none" stroke="rgb(84, 72, 49)" stroke-opacity=" 0.15" stroke-width="1" stroke-dasharray="1,3" data-z-index="1" class="highcharts-grid-line" d="M 526.5 20 L 526.5 461" opacity="1"></path><path fill="none" stroke="rgb(84, 72, 49)" stroke-opacity=" 0.15" stroke-width="1" stroke-dasharray="1,3" data-z-index="1" class="highcharts-grid-line" d="M 658.5 20 L 658.5 461" opacity="1"></path><path fill="none" stroke="rgb(84, 72, 49)" stroke-opacity=" 0.15" stroke-width="1" stroke-dasharray="1,3" data-z-index="1" class="highcharts-grid-line" d="M 790.5 20 L 790.5 461" opacity="1"></path></g><g class="highcharts-grid highcharts-xaxis-grid" data-z-index="1" aria-hidden="true"><path fill="none" stroke="rgb(84, 72, 49)" stroke-opacity=" 0.15" stroke-width="0" stroke-dasharray="0,0" data-z-index="1" class="highcharts-grid-line" d="M 264 54.5 L 790 54.5" opacity="1"></path><path fill="none" stroke="rgb(84, 72, 49)" stroke-opacity=" 0.15" stroke-width="0" stroke-dasharray="0,0" data-z-index="1" class="highcharts-grid-line" d="M 264 88.5 L 790 88.5" opacity="1"></path><path fill="none" stroke="rgb(84, 72, 49)" stroke-opacity=" 0.15" stroke-width="0" stroke-dasharray="0,0" data-z-index="1" class="highcharts-grid-line" d="M 264 122.5 L 790 122.5" opacity="1"></path><path fill="none" stroke="rgb(84, 72, 49)" stroke-opacity=" 0.15" stroke-width="0" stroke-dasharray="0,0" data-z-index="1" class="highcharts-grid-line" d="M 264 156.5 L 790 156.5" opacity="1"></path><path fill="none" stroke="rgb(84, 72, 49)" stroke-opacity=" 0.15" stroke-width="0" stroke-dasharray="0,0" data-z-index="1" class="highcharts-grid-line" d="M 264 190.5 L 790 190.5" opacity="1"></path><path fill="none" stroke="rgb(84, 72, 49)" stroke-opacity=" 0.15" stroke-width="0" stroke-dasharray="0,0" data-z-index="1" class="highcharts-grid-line" d="M 264 224.5 L 790 224.5" opacity="1"></path><path fill="none" stroke="rgb(84, 72, 49)" stroke-opacity=" 0.15" stroke-width="0" stroke-dasharray="0,0" data-z-index="1" class="highcharts-grid-line" d="M 264 257.5 L 790 257.5" opacity="1"></path><path fill="none" stroke="rgb(84, 72, 49)" stroke-opacity=" 0.15" stroke-width="0" stroke-dasharray="0,0" data-z-index="1" class="highcharts-grid-line" d="M 264 291.5 L 790 291.5" opacity="1"></path><path fill="none" stroke="rgb(84, 72, 49)" stroke-opacity=" 0.15" stroke-width="0" stroke-dasharray="0,0" data-z-index="1" class="highcharts-grid-line" d="M 264 325.5 L 790 325.5" opacity="1"></path><path fill="none" stroke="rgb(84, 72, 49)" stroke-opacity=" 0.15" stroke-width="0" stroke-dasharray="0,0" data-z-index="1" class="highcharts-grid-line" d="M 264 359.5 L 790 359.5" opacity="1"></path><path fill="none" stroke="rgb(84, 72, 49)" stroke-opacity=" 0.15" stroke-width="0" stroke-dasharray="0,0" data-z-index="1" class="highcharts-grid-line" d="M 264 393.5 L 790 393.5" opacity="1"></path><path fill="none" stroke="rgb(84, 72, 49)" stroke-opacity=" 0.15" stroke-width="0" stroke-dasharray="0,0" data-z-index="1" class="highcharts-grid-line" d="M 264 427.5 L 790 427.5" opacity="1"></path><path fill="none" stroke="rgb(84, 72, 49)" stroke-opacity=" 0.15" stroke-width="0" stroke-dasharray="0,0" data-z-index="1" class="highcharts-grid-line" d="M 264 461.5 L 790 461.5" opacity="1"></path><path fill="none" stroke="rgb(84, 72, 49)" stroke-opacity=" 0.15" stroke-width="0" stroke-dasharray="0,0" data-z-index="1" class="highcharts-grid-line" d="M 264 20.5 L 790 20.5" opacity="1"></path></g><rect fill="none" class="highcharts-plot-border" data-z-index="1" stroke="#cccccc" stroke-width="0" x="264" y="20" width="526" height="441" aria-hidden="true"></rect><g class="highcharts-axis highcharts-yaxis" data-z-index="2" aria-hidden="true"><path fill="none" class="highcharts-axis-line" stroke="rgb(84, 72, 49)" stroke-opacity=" 0.15" stroke-width="0" data-z-index="7" d="M 264 461 L 790 461"></path></g><g class="highcharts-axis highcharts-xaxis" data-z-index="2" aria-hidden="true"><path fill="none" class="highcharts-axis-line" stroke="rgb(84, 72, 49)" stroke-opacity=" 0.15" stroke-width="1" data-z-index="7" d="M 263.5 20 L 263.5 461"></path></g><g class="highcharts-series-group" data-z-index="3" filter="none" aria-hidden="false"><g class="highcharts-series highcharts-series-0 highcharts-bar-series highcharts-color-0" data-z-index="0.1" opacity="1" transform="translate(264,20) rotate(90 42.5 483.5) scale(-1 1)" clip-path="url(#highcharts-yc51n61-748-)" aria-hidden="false"><path fill="rgb(45, 152, 234)" fill-opacity=" 1" d="M 420.5 99.5 L 427.5 99.5 A 2 2 0 0 1 429.5 101.5 L 429.5 526.5 A 0 0 0 0 1 429.5 526.5 L 418.5 526.5 A 0 0 0 0 1 418.5 526.5 L 418.5 101.5 A 2 2 0 0 1 420.5 99.5 Z" stroke="white" stroke-width="0.5" opacity="1" filter="none" class="highcharts-point highcharts-color-0" tabindex="-1" style="outline: none;" role="img" aria-label="Shinseiki no Love Song (新世紀のラブソング / Love Song of New Century), 26. Magic Disk."></path><path fill="rgb(231, 181, 51)" fill-opacity=" 1" d="M 386.5 197.5 L 393.5 197.5 A 2 2 0 0 1 395.5 199.5 L 395.5 526.5 A 0 0 0 0 1 395.5 526.5 L 384.5 526.5 A 0 0 0 0 1 384.5 526.5 L 384.5 199.5 A 2 2 0 0 1 386.5 197.5 Z" stroke="white" stroke-width="0.5" opacity="1" filter="none" class="highcharts-point highcharts-color-0" tabindex="-1" style="outline: none;" role="img" aria-label="Maigoinu to Ame no Beat (迷子犬と雨のビート / A Lost Dog and Beats of the Rain), 20. Magic Disk."></path><path fill="rgb(165, 121, 217)" fill-opacity=" 1" d="M 352.5 312.5 L 359.5 312.5 A 2 2 0 0 1 361.5 314.5 L 361.5 526.5 A 0 0 0 0 1 361.5 526.5 L 350.5 526.5 A 0 0 0 0 1 350.5 526.5 L 350.5 314.5 A 2 2 0 0 1 352.5 312.5 Z" stroke="white" stroke-width="0.5" opacity="1" filter="none" class="highcharts-point highcharts-color-0" tabindex="-1" style="outline: none;" role="img" aria-label="Aozora to Kuroi Neko (青空と黒い猫 / Blue Sky and a Black Cat), 13. Magic Disk."></path><path fill="rgb(222, 101, 165)" fill-opacity=" 1" d="M 318.5 312.5 L 325.5 312.5 A 2 2 0 0 1 327.5 314.5 L 327.5 526.5 A 0 0 0 0 1 327.5 526.5 L 316.5 526.5 A 0 0 0 0 1 316.5 526.5 L 316.5 314.5 A 2 2 0 0 1 318.5 312.5 Z" stroke="white" stroke-width="0.5" opacity="1" filter="none" class="highcharts-point highcharts-color-0" tabindex="-1" style="outline: none;" role="img" aria-label="Daidai (橙 / Bitter Orange), 13. Magic Disk."></path><path fill="rgb(227, 226, 224)" fill-opacity=" 1" d="M 284.5 345.5 L 291.5 345.5 A 2 2 0 0 1 293.5 347.5 L 293.5 526.5 A 0 0 0 0 1 293.5 526.5 L 282.5 526.5 A 0 0 0 0 1 282.5 526.5 L 282.5 347.5 A 2 2 0 0 1 284.5 345.5 Z" stroke="white" stroke-width="0.5" opacity="1" filter="none" class="highcharts-point highcharts-color-0" tabindex="-1" style="outline: none;" role="img" aria-label="Last Dance wa Kanashimi wo Nosete (ラストダンスは悲しみを乗せて / Last Dance with the Sadness), 11. Magic Disk."></path><path fill="rgb(199, 198, 196)" fill-opacity=" 1" d="M 250.5 345.5 L 257.5 345.5 A 2 2 0 0 1 259.5 347.5 L 259.5 526.5 A 0 0 0 0 1 259.5 526.5 L 248.5 526.5 A 0 0 0 0 1 248.5 526.5 L 248.5 347.5 A 2 2 0 0 1 250.5 345.5 Z" stroke="white" stroke-width="0.5" opacity="1" filter="none" class="highcharts-point highcharts-color-0" tabindex="-1" style="outline: none;" role="img" aria-label="Magic Disk (マジックディスク), 11. Magic Disk."></path><path fill="rgb(97, 189, 142)" fill-opacity=" 1" d="M 216.5 411.5 L 223.5 411.5 A 2 2 0 0 1 225.5 413.5 L 225.5 526.5 A 0 0 0 0 1 225.5 526.5 L 214.5 526.5 A 0 0 0 0 1 214.5 526.5 L 214.5 413.5 A 2 2 0 0 1 216.5 411.5 Z" stroke="white" stroke-width="0.5" opacity="1" filter="none" class="highcharts-point highcharts-color-0" tabindex="-1" style="outline: none;" role="img" aria-label="Sayonara Lost Generation (さよならロストジェネレイション / Goodbye Lost Generation), 7. Magic Disk."></path><path fill="rgb(234, 139, 66)" fill-opacity=" 1" d="M 182.5 444.5 L 189.5 444.5 A 2 2 0 0 1 191.5 446.5 L 191.5 526.5 A 0 0 0 0 1 191.5 526.5 L 180.5 526.5 A 0 0 0 0 1 180.5 526.5 L 180.5 446.5 A 2 2 0 0 1 182.5 444.5 Z" stroke="white" stroke-width="0.5" opacity="1" filter="none" class="highcharts-point highcharts-color-0" tabindex="-1" style="outline: none;" role="img" aria-label="Kakuu Seibutsu no Blues (架空生物のブルース / Bluse of Imaginary Creature), 5. Magic Disk."></path><path fill="rgb(224, 94, 88)" fill-opacity=" 1" d="M 148.5 444.5 L 155.5 444.5 A 2 2 0 0 1 157.5 446.5 L 157.5 526.5 A 0 0 0 0 1 157.5 526.5 L 146.5 526.5 A 0 0 0 0 1 146.5 526.5 L 146.5 446.5 A 2 2 0 0 1 148.5 444.5 Z" stroke="white" stroke-width="0.5" opacity="1" filter="none" class="highcharts-point highcharts-color-0" tabindex="-1" style="outline: none;" role="img" aria-label="Soushiyou (双子葉 / Dicotyledon), 5. Magic Disk."></path><path fill="rgb(199, 198, 196)" fill-opacity=" 1" d="M 114.5 477.5 L 121.5 477.5 A 2 2 0 0 1 123.5 479.5 L 123.5 526.5 A 0 0 0 0 1 123.5 526.5 L 112.5 526.5 A 0 0 0 0 1 112.5 526.5 L 112.5 479.5 A 2 2 0 0 1 114.5 477.5 Z" stroke="white" stroke-width="0.5" opacity="1" filter="none" class="highcharts-point highcharts-color-0" tabindex="-1" style="outline: none;" role="img" aria-label="Yes (イエス), 3. Magic Disk."></path><path fill="rgb(222, 101, 165)" fill-opacity=" 1" d="M 80.5 493.5 L 87.5 493.5 A 2 2 0 0 1 89.5 495.5 L 89.5 526.5 A 0 0 0 0 1 89.5 526.5 L 78.5 526.5 A 0 0 0 0 1 78.5 526.5 L 78.5 495.5 A 2 2 0 0 1 80.5 493.5 Z" stroke="white" stroke-width="0.5" opacity="1" filter="none" class="highcharts-point highcharts-color-0" tabindex="-1" style="outline: none;" role="img" aria-label="Microphone (マイクロフォン / Microphone), 2. Magic Disk."></path><path fill="rgb(190, 140, 105)" fill-opacity=" 1" d="M 47.5 526.5 L 54.5 526.5 A 2 2 0 0 1 54.5 526.5 L 54.5 526.5 A 0 0 0 0 1 54.5 526.5 L 54.5 526.5 A 0 0 0 0 1 47.5 526.5 L 47.5 526.5 A 2 2 0 0 1 47.5 526.5 Z" stroke="white" stroke-width="0.5" opacity="1" filter="none" class="highcharts-point highcharts-color-0" tabindex="-1" style="outline: none;" role="img" aria-label="Rising Sun (ライジングサン), 0. Magic Disk."></path><path fill="rgb(241, 241, 239)" fill-opacity=" 1" d="M 13.5 526.5 L 20.5 526.5 A 2 2 0 0 1 20.5 526.5 L 20.5 526.5 A 0 0 0 0 1 20.5 526.5 L 20.5 526.5 A 0 0 0 0 1 13.5 526.5 L 13.5 526.5 A 2 2 0 0 1 13.5 526.5 Z" stroke="white" stroke-width="0.5" opacity="1" filter="none" class="highcharts-point highcharts-color-0" tabindex="-1" style="outline: none;" role="img" aria-label="No Magic Disk, 0. Magic Disk."></path></g><g class="highcharts-markers highcharts-series-0 highcharts-bar-series highcharts-color-0" data-z-index="0.1" opacity="1" transform="translate(264,20) scale(1 1)" clip-path="none" aria-hidden="true"></g></g><text x="400" text-anchor="middle" class="highcharts-title" data-z-index="4" style="font-size: 1.2em; color: rgb(51, 51, 51); font-weight: bold; fill: rgb(51, 51, 51);" y="21" aria-hidden="true"></text><text x="400" text-anchor="middle" class="highcharts-subtitle" data-z-index="4" style="color: rgb(102, 102, 102); font-size: 0.8em; fill: rgb(102, 102, 102);" y="22" aria-hidden="true"></text><text x="400" text-anchor="middle" class="highcharts-caption" data-z-index="4" style="color: rgba(55, 53, 47, 0.65); font-size: 12px; font-weight: normal; fill: rgba(55, 53, 47, 0.65);" y="497" aria-hidden="true"></text><g class="highcharts-data-labels highcharts-series-0 highcharts-bar-series highcharts-color-0" data-z-index="6" opacity="1" transform="translate(264,20) scale(1 1)" aria-hidden="true"><g class="highcharts-label highcharts-data-label highcharts-data-label-color-0" data-z-index="1" filter="none" transform="translate(426,4)"><text x="5" data-z-index="1" y="17" style="color: rgba(55, 53, 47, 0.65); font-size: 12px; font-weight: normal; fill: rgba(55, 53, 47, 0.65);">26</text></g><g class="highcharts-label highcharts-data-label highcharts-data-label-color-0" data-z-index="1" filter="none" transform="translate(328,38)"><text x="5" data-z-index="1" y="17" style="color: rgba(55, 53, 47, 0.65); font-size: 12px; font-weight: normal; fill: rgba(55, 53, 47, 0.65);">20</text></g><g class="highcharts-label highcharts-data-label highcharts-data-label-color-0" data-z-index="1" filter="none" transform="translate(213,72)"><text x="5" data-z-index="1" y="17" style="color: rgba(55, 53, 47, 0.65); font-size: 12px; font-weight: normal; fill: rgba(55, 53, 47, 0.65);">13</text></g><g class="highcharts-label highcharts-data-label highcharts-data-label-color-0" data-z-index="1" filter="none" transform="translate(213,106)"><text x="5" data-z-index="1" y="17" style="color: rgba(55, 53, 47, 0.65); font-size: 12px; font-weight: normal; fill: rgba(55, 53, 47, 0.65);">13</text></g><g class="highcharts-label highcharts-data-label highcharts-data-label-color-0" data-z-index="1" filter="none" transform="translate(180,140)"><text x="5" data-z-index="1" y="17" style="color: rgba(55, 53, 47, 0.65); font-size: 12px; font-weight: normal; fill: rgba(55, 53, 47, 0.65);">11</text></g><g class="highcharts-label highcharts-data-label highcharts-data-label-color-0" data-z-index="1" filter="none" transform="translate(180,174)"><text x="5" data-z-index="1" y="17" style="color: rgba(55, 53, 47, 0.65); font-size: 12px; font-weight: normal; fill: rgba(55, 53, 47, 0.65);">11</text></g><g class="highcharts-label highcharts-data-label highcharts-data-label-color-0" data-z-index="1" filter="none" transform="translate(114,208)"><text x="5" data-z-index="1" y="17" style="color: rgba(55, 53, 47, 0.65); font-size: 12px; font-weight: normal; fill: rgba(55, 53, 47, 0.65);">7</text></g><g class="highcharts-label highcharts-data-label highcharts-data-label-color-0" data-z-index="1" filter="none" transform="translate(81,242)"><text x="5" data-z-index="1" y="17" style="color: rgba(55, 53, 47, 0.65); font-size: 12px; font-weight: normal; fill: rgba(55, 53, 47, 0.65);">5</text></g><g class="highcharts-label highcharts-data-label highcharts-data-label-color-0" data-z-index="1" filter="none" transform="translate(81,276)"><text x="5" data-z-index="1" y="17" style="color: rgba(55, 53, 47, 0.65); font-size: 12px; font-weight: normal; fill: rgba(55, 53, 47, 0.65);">5</text></g><g class="highcharts-label highcharts-data-label highcharts-data-label-color-0" data-z-index="1" filter="none" transform="translate(48,310)"><text x="5" data-z-index="1" y="17" style="color: rgba(55, 53, 47, 0.65); font-size: 12px; font-weight: normal; fill: rgba(55, 53, 47, 0.65);">3</text></g><g class="highcharts-label highcharts-data-label highcharts-data-label-color-0" data-z-index="1" filter="none" transform="translate(32,344)"><text x="5" data-z-index="1" y="17" style="color: rgba(55, 53, 47, 0.65); font-size: 12px; font-weight: normal; fill: rgba(55, 53, 47, 0.65);">2</text></g><g class="highcharts-label highcharts-data-label highcharts-data-label-color-0" data-z-index="1" filter="none" transform="translate(-1,377)"><text x="5" data-z-index="1" y="17" style="color: rgba(55, 53, 47, 0.65); font-size: 12px; font-weight: normal; fill: rgba(55, 53, 47, 0.65);">0</text></g><g class="highcharts-label highcharts-data-label highcharts-data-label-color-0" data-z-index="1" filter="none" transform="translate(-1,411)"><text x="5" data-z-index="1" y="17" style="color: rgba(55, 53, 47, 0.65); font-size: 12px; font-weight: normal; fill: rgba(55, 53, 47, 0.65);">0</text></g></g><g class="highcharts-axis-labels highcharts-yaxis-labels" data-z-index="7" aria-hidden="true"><text x="264" style="color: rgba(55, 53, 47, 0.65); cursor: default; font-size: 12px; fill: rgba(55, 53, 47, 0.65);" text-anchor="middle" transform="translate(0,0)" y="481" opacity="1">0</text><text x="395.5" style="color: rgba(55, 53, 47, 0.65); cursor: default; font-size: 12px; fill: rgba(55, 53, 47, 0.65);" text-anchor="middle" transform="translate(0,0)" y="481" opacity="1">8</text><text x="527" style="color: rgba(55, 53, 47, 0.65); cursor: default; font-size: 12px; fill: rgba(55, 53, 47, 0.65);" text-anchor="middle" transform="translate(0,0)" y="481" opacity="1">16</text><text x="658.5" style="color: rgba(55, 53, 47, 0.65); cursor: default; font-size: 12px; fill: rgba(55, 53, 47, 0.65);" text-anchor="middle" transform="translate(0,0)" y="481" opacity="1">24</text><text x="784.5" style="color: rgba(55, 53, 47, 0.65); cursor: default; font-size: 12px; fill: rgba(55, 53, 47, 0.65);" text-anchor="middle" transform="translate(0,0)" y="481" opacity="1">32</text></g><g class="highcharts-axis-labels highcharts-xaxis-labels" data-z-index="7" aria-hidden="true"><text x="256" style="color: rgba(55, 53, 47, 0.65); cursor: default; font-size: 12px; overflow: hidden; fill: rgba(55, 53, 47, 0.65);" text-anchor="end" transform="translate(0,0)" y="41" opacity="1"><title>Shinseiki no Love Song (新世紀のラブソング / Love Song of New Century)</title>Shinseiki no Love Song (新世紀のラブソング…</text><text x="256" style="color: rgba(55, 53, 47, 0.65); cursor: default; font-size: 12px; overflow: hidden; fill: rgba(55, 53, 47, 0.65);" text-anchor="end" transform="translate(0,0)" y="75" opacity="1"><title>Maigoinu to Ame no Beat (迷子犬と雨のビート / A Lost Dog and Beats of the Rain)</title>Maigoinu to Ame no Beat (迷子犬と雨のビ…</text><text x="256" style="color: rgba(55, 53, 47, 0.65); cursor: default; font-size: 12px; overflow: hidden; fill: rgba(55, 53, 47, 0.65);" text-anchor="end" transform="translate(0,0)" y="109" opacity="1"><title>Aozora to Kuroi Neko (青空と黒い猫 / Blue Sky and a Black Cat)</title>Aozora to Kuroi Neko (青空と黒い猫 / Blue S…</text><text x="256" style="color: rgba(55, 53, 47, 0.65); cursor: default; font-size: 12px; overflow: hidden; fill: rgba(55, 53, 47, 0.65);" text-anchor="end" transform="translate(0,0)" y="143" opacity="1">Daidai (橙 / Bitter Orange)</text><text x="256" style="color: rgba(55, 53, 47, 0.65); cursor: default; font-size: 12px; overflow: hidden; fill: rgba(55, 53, 47, 0.65);" text-anchor="end" transform="translate(0,0)" y="177" opacity="1"><title>Last Dance wa Kanashimi wo Nosete (ラストダンスは悲しみを乗せて / Last Dance with the Sadness)</title>Last Dance wa Kanashimi wo Nosete (ラスト…</text><text x="256" style="color: rgba(55, 53, 47, 0.65); cursor: default; font-size: 12px; overflow: hidden; fill: rgba(55, 53, 47, 0.65);" text-anchor="end" transform="translate(0,0)" y="211" opacity="1">Magic Disk (マジックディスク)</text><text x="256" style="color: rgba(55, 53, 47, 0.65); cursor: default; font-size: 12px; overflow: hidden; fill: rgba(55, 53, 47, 0.65);" text-anchor="end" transform="translate(0,0)" y="245" opacity="1"><title>Sayonara Lost Generation (さよならロストジェネレイション / Goodbye Lost Generation)</title>Sayonara Lost Generation (さよならロスト…</text><text x="256" style="color: rgba(55, 53, 47, 0.65); cursor: default; font-size: 12px; overflow: hidden; fill: rgba(55, 53, 47, 0.65);" text-anchor="end" transform="translate(0,0)" y="278" opacity="1"><title>Kakuu Seibutsu no Blues (架空生物のブルース / Bluse of Imaginary Creature)</title>Kakuu Seibutsu no Blues (架空生物のブルー…</text><text x="256" style="color: rgba(55, 53, 47, 0.65); cursor: default; font-size: 12px; overflow: hidden; fill: rgba(55, 53, 47, 0.65);" text-anchor="end" transform="translate(0,0)" y="312" opacity="1">Soushiyou (双子葉 / Dicotyledon)</text><text x="256" style="color: rgba(55, 53, 47, 0.65); cursor: default; font-size: 12px; overflow: hidden; fill: rgba(55, 53, 47, 0.65);" text-anchor="end" transform="translate(0,0)" y="346" opacity="1">Yes (イエス)</text><text x="256" style="color: rgba(55, 53, 47, 0.65); cursor: default; font-size: 12px; overflow: hidden; fill: rgba(55, 53, 47, 0.65);" text-anchor="end" transform="translate(0,0)" y="380" opacity="1">Microphone (マイクロフォン / Microphone)</text><text x="256" style="color: rgba(55, 53, 47, 0.65); cursor: default; font-size: 12px; overflow: hidden; fill: rgba(55, 53, 47, 0.65);" text-anchor="end" transform="translate(0,0)" y="414" opacity="1">Rising Sun (ライジングサン)</text><text x="256" style="color: rgba(55, 53, 47, 0.65); cursor: default; font-size: 12px; overflow: hidden; fill: rgba(55, 53, 47, 0.65);" text-anchor="end" transform="translate(0,0)" y="448" opacity="1">No Magic Disk</text></g></svg>