<svg xmlns:xlink="http://www.w3.org/1999/xlink" version="1.1" class="highcharts-root" style="font-family: ui-sans-serif, -apple-system, BlinkMacSystemFont, &quot;Segoe UI Variable Display&quot;, &quot;Segoe UI&quot;, Helvetica, &quot;Apple Color Emoji&quot;, Arial, sans-serif, &quot;Segoe UI Emoji&quot;, &quot;Segoe UI Symbol&quot;; font-size: 12px; cursor: default;" xmlns="http://www.w3.org/2000/svg" width="800" height="500" viewBox="0 0 800 500" aria-label="Interactive chart" aria-hidden="false"><desc aria-hidden="true">Created with Highcharts 11.4.1</desc><defs aria-hidden="true"><filter id="highcharts-drop-shadow-57"><feDropShadow dx="1" dy="1" flood-color="#000000" flood-opacity="0.75" stdDeviation="2.5"></feDropShadow></filter><clipPath id="highcharts-yc51n61-838-"><rect x="0" y="0" width="441" height="562" fill="none"></rect></clipPath><filter id="highcharts-drop-shadow-57-offsetx--1-offsety--1"><feDropShadow dx="-1" dy="-1" flood-color="#000000" flood-opacity="0.75" stdDeviation="2.5"></feDropShadow></filter></defs><rect fill="transparent" class="highcharts-background" filter="none" x="0" y="0" width="800" height="500" rx="0" ry="0" aria-hidden="true"></rect><rect fill="none" class="highcharts-plot-background" x="228" y="20" width="562" height="441" filter="none" aria-hidden="true"></rect><g class="highcharts-grid highcharts-yaxis-grid" data-z-index="1" aria-hidden="true"><path fill="none" stroke="rgb(84, 72, 49)" stroke-opacity=" 0.15" stroke-width="1" stroke-dasharray="1,3" data-z-index="1" class="highcharts-grid-line" d="M 227.5 20 L 227.5 461" opacity="1"></path><path fill="none" stroke="rgb(84, 72, 49)" stroke-opacity=" 0.15" stroke-width="1" stroke-dasharray="1,3" data-z-index="1" class="highcharts-grid-line" d="M 368.5 20 L 368.5 461" opacity="1"></path><path fill="none" stroke="rgb(84, 72, 49)" stroke-opacity=" 0.15" stroke-width="1" stroke-dasharray="1,3" data-z-index="1" class="highcharts-grid-line" d="M 508.5 20 L 508.5 461" opacity="1"></path><path fill="none" stroke="rgb(84, 72, 49)" stroke-opacity=" 0.15" stroke-width="1" stroke-dasharray="1,3" data-z-index="1" class="highcharts-grid-line" d="M 649.5 20 L 649.5 461" opacity="1"></path><path fill="none" stroke="rgb(84, 72, 49)" stroke-opacity=" 0.15" stroke-width="1" stroke-dasharray="1,3" data-z-index="1" class="highcharts-grid-line" d="M 790.5 20 L 790.5 461" opacity="1"></path></g><g class="highcharts-grid highcharts-xaxis-grid" data-z-index="1" aria-hidden="true"><path fill="none" stroke="rgb(84, 72, 49)" stroke-opacity=" 0.15" stroke-width="0" stroke-dasharray="0,0" data-z-index="1" class="highcharts-grid-line" d="M 228 57.5 L 790 57.5" opacity="1"></path><path fill="none" stroke="rgb(84, 72, 49)" stroke-opacity=" 0.15" stroke-width="0" stroke-dasharray="0,0" data-z-index="1" class="highcharts-grid-line" d="M 228 94.5 L 790 94.5" opacity="1"></path><path fill="none" stroke="rgb(84, 72, 49)" stroke-opacity=" 0.15" stroke-width="0" stroke-dasharray="0,0" data-z-index="1" class="highcharts-grid-line" d="M 228 130.5 L 790 130.5" opacity="1"></path><path fill="none" stroke="rgb(84, 72, 49)" stroke-opacity=" 0.15" stroke-width="0" stroke-dasharray="0,0" data-z-index="1" class="highcharts-grid-line" d="M 228 167.5 L 790 167.5" opacity="1"></path><path fill="none" stroke="rgb(84, 72, 49)" stroke-opacity=" 0.15" stroke-width="0" stroke-dasharray="0,0" data-z-index="1" class="highcharts-grid-line" d="M 228 204.5 L 790 204.5" opacity="1"></path><path fill="none" stroke="rgb(84, 72, 49)" stroke-opacity=" 0.15" stroke-width="0" stroke-dasharray="0,0" data-z-index="1" class="highcharts-grid-line" d="M 228 241.5 L 790 241.5" opacity="1"></path><path fill="none" stroke="rgb(84, 72, 49)" stroke-opacity=" 0.15" stroke-width="0" stroke-dasharray="0,0" data-z-index="1" class="highcharts-grid-line" d="M 228 277.5 L 790 277.5" opacity="1"></path><path fill="none" stroke="rgb(84, 72, 49)" stroke-opacity=" 0.15" stroke-width="0" stroke-dasharray="0,0" data-z-index="1" class="highcharts-grid-line" d="M 228 314.5 L 790 314.5" opacity="1"></path><path fill="none" stroke="rgb(84, 72, 49)" stroke-opacity=" 0.15" stroke-width="0" stroke-dasharray="0,0" data-z-index="1" class="highcharts-grid-line" d="M 228 351.5 L 790 351.5" opacity="1"></path><path fill="none" stroke="rgb(84, 72, 49)" stroke-opacity=" 0.15" stroke-width="0" stroke-dasharray="0,0" data-z-index="1" class="highcharts-grid-line" d="M 228 388.5 L 790 388.5" opacity="1"></path><path fill="none" stroke="rgb(84, 72, 49)" stroke-opacity=" 0.15" stroke-width="0" stroke-dasharray="0,0" data-z-index="1" class="highcharts-grid-line" d="M 228 424.5 L 790 424.5" opacity="1"></path><path fill="none" stroke="rgb(84, 72, 49)" stroke-opacity=" 0.15" stroke-width="0" stroke-dasharray="0,0" data-z-index="1" class="highcharts-grid-line" d="M 228 461.5 L 790 461.5" opacity="1"></path><path fill="none" stroke="rgb(84, 72, 49)" stroke-opacity=" 0.15" stroke-width="0" stroke-dasharray="0,0" data-z-index="1" class="highcharts-grid-line" d="M 228 20.5 L 790 20.5" opacity="1"></path></g><rect fill="none" class="highcharts-plot-border" data-z-index="1" stroke="#cccccc" stroke-width="0" x="228" y="20" width="562" height="441" aria-hidden="true"></rect><g class="highcharts-axis highcharts-yaxis" data-z-index="2" aria-hidden="true"><path fill="none" class="highcharts-axis-line" stroke="rgb(84, 72, 49)" stroke-opacity=" 0.15" stroke-width="0" data-z-index="7" d="M 228 461 L 790 461"></path></g><g class="highcharts-axis highcharts-xaxis" data-z-index="2" aria-hidden="true"><path fill="none" class="highcharts-axis-line" stroke="rgb(84, 72, 49)" stroke-opacity=" 0.15" stroke-width="1" data-z-index="7" d="M 227.5 20 L 227.5 461"></path></g><g class="highcharts-series-group" data-z-index="3" filter="none" aria-hidden="false"><g class="highcharts-series highcharts-series-0 highcharts-bar-series highcharts-color-0" data-z-index="0.1" opacity="1" transform="translate(228,20) rotate(90 60.5 501.5) scale(-1 1)" clip-path="url(#highcharts-yc51n61-838-)" aria-hidden="false"><path fill="rgb(231, 181, 51)" fill-opacity=" 1" d="M 418.5 112.5 L 426.5 112.5 A 2 2 0 0 1 428.5 114.5 L 428.5 562.5 A 0 0 0 0 1 428.5 562.5 L 416.5 562.5 A 0 0 0 0 1 416.5 562.5 L 416.5 114.5 A 2 2 0 0 1 418.5 112.5 Z" stroke="white" stroke-width="0.5" opacity="1" filter="none" class="highcharts-point highcharts-color-0" tabindex="-1" style="outline: none;" role="img" aria-label="Standard / スタンダード, 32. Wonder Future."></path><path fill="rgb(234, 139, 66)" fill-opacity=" 1" d="M 381.5 309.5 L 389.5 309.5 A 2 2 0 0 1 391.5 311.5 L 391.5 562.5 A 0 0 0 0 1 391.5 562.5 L 379.5 562.5 A 0 0 0 0 1 379.5 562.5 L 379.5 311.5 A 2 2 0 0 1 381.5 309.5 Z" stroke="white" stroke-width="0.5" opacity="1" filter="none" class="highcharts-point highcharts-color-0" tabindex="-1" style="outline: none;" role="img" aria-label="Easter / 復活祭, 18. Wonder Future."></path><path fill="rgb(97, 189, 142)" fill-opacity=" 1" d="M 344.5 365.5 L 352.5 365.5 A 2 2 0 0 1 354.5 367.5 L 354.5 562.5 A 0 0 0 0 1 354.5 562.5 L 342.5 562.5 A 0 0 0 0 1 342.5 562.5 L 342.5 367.5 A 2 2 0 0 1 344.5 365.5 Z" stroke="white" stroke-width="0.5" opacity="1" filter="none" class="highcharts-point highcharts-color-0" tabindex="-1" style="outline: none;" role="img" aria-label="Wonder Future / ワンダーフューチャー, 14. Wonder Future."></path><path fill="rgb(165, 121, 217)" fill-opacity=" 1" d="M 308.5 379.5 L 316.5 379.5 A 2 2 0 0 1 318.5 381.5 L 318.5 562.5 A 0 0 0 0 1 318.5 562.5 L 306.5 562.5 A 0 0 0 0 1 306.5 562.5 L 306.5 381.5 A 2 2 0 0 1 308.5 379.5 Z" stroke="white" stroke-width="0.5" opacity="1" filter="none" class="highcharts-point highcharts-color-0" tabindex="-1" style="outline: none;" role="img" aria-label="Opera Glasses / オペラグラス, 13. Wonder Future."></path><path fill="rgb(45, 152, 234)" fill-opacity=" 1" d="M 271.5 393.5 L 279.5 393.5 A 2 2 0 0 1 281.5 395.5 L 281.5 562.5 A 0 0 0 0 1 281.5 562.5 L 269.5 562.5 A 0 0 0 0 1 269.5 562.5 L 269.5 395.5 A 2 2 0 0 1 271.5 393.5 Z" stroke="white" stroke-width="0.5" opacity="1" filter="none" class="highcharts-point highcharts-color-0" tabindex="-1" style="outline: none;" role="img" aria-label="Eternal Sunshine / 永遠の陽光, 12. Wonder Future."></path><path fill="rgb(165, 121, 217)" fill-opacity=" 1" d="M 234.5 422.5 L 242.5 422.5 A 2 2 0 0 1 244.5 424.5 L 244.5 562.5 A 0 0 0 0 1 244.5 562.5 L 232.5 562.5 A 0 0 0 0 1 232.5 562.5 L 232.5 424.5 A 2 2 0 0 1 234.5 422.5 Z" stroke="white" stroke-width="0.5" opacity="1" filter="none" class="highcharts-point highcharts-color-0" tabindex="-1" style="outline: none;" role="img" aria-label="Little Lennon / 小さなレノン, 10. Wonder Future."></path><path fill="rgb(190, 140, 105)" fill-opacity=" 1" d="M 197.5 422.5 L 205.5 422.5 A 2 2 0 0 1 207.5 424.5 L 207.5 562.5 A 0 0 0 0 1 207.5 562.5 L 195.5 562.5 A 0 0 0 0 1 195.5 562.5 L 195.5 424.5 A 2 2 0 0 1 197.5 422.5 Z" stroke="white" stroke-width="0.5" opacity="1" filter="none" class="highcharts-point highcharts-color-0" tabindex="-1" style="outline: none;" role="img" aria-label="Winner and Loser / 勝者と敗者, 10. Wonder Future."></path><path fill="rgb(199, 198, 196)" fill-opacity=" 1" d="M 161.5 492.5 L 169.5 492.5 A 2 2 0 0 1 171.5 494.5 L 171.5 562.5 A 0 0 0 0 1 171.5 562.5 L 159.5 562.5 A 0 0 0 0 1 159.5 562.5 L 159.5 494.5 A 2 2 0 0 1 161.5 492.5 Z" stroke="white" stroke-width="0.5" opacity="1" filter="none" class="highcharts-point highcharts-color-0" tabindex="-1" style="outline: none;" role="img" aria-label="Signal on the Street / 街頭のシグナル, 5. Wonder Future."></path><path fill="rgb(222, 101, 165)" fill-opacity=" 1" d="M 124.5 548.5 L 132.5 548.5 A 2 2 0 0 1 134.5 550.5 L 134.5 562.5 A 0 0 0 0 1 134.5 562.5 L 122.5 562.5 A 0 0 0 0 1 122.5 562.5 L 122.5 550.5 A 2 2 0 0 1 124.5 548.5 Z" stroke="white" stroke-width="0.5" opacity="1" filter="none" class="highcharts-point highcharts-color-0" tabindex="-1" style="outline: none;" role="img" aria-label="Caterpillar / 芋虫, 1. Wonder Future."></path><path fill="rgb(227, 226, 224)" fill-opacity=" 1" d="M 87.5 548.5 L 95.5 548.5 A 2 2 0 0 1 97.5 550.5 L 97.5 562.5 A 0 0 0 0 1 97.5 562.5 L 85.5 562.5 A 0 0 0 0 1 85.5 562.5 L 85.5 550.5 A 2 2 0 0 1 87.5 548.5 Z" stroke="white" stroke-width="0.5" opacity="1" filter="none" class="highcharts-point highcharts-color-0" tabindex="-1" style="outline: none;" role="img" aria-label="Prisoner in a Frame / 額の中の囚人, 1. Wonder Future."></path><path fill="rgb(224, 94, 88)" fill-opacity=" 1" d="M 50.5 562.5 L 58.5 562.5 A 2 2 0 0 1 58.5 562.5 L 58.5 562.5 A 0 0 0 0 1 58.5 562.5 L 58.5 562.5 A 0 0 0 0 1 50.5 562.5 L 50.5 562.5 A 2 2 0 0 1 50.5 562.5 Z" stroke="white" stroke-width="0.5" opacity="1" filter="none" class="highcharts-point highcharts-color-0" tabindex="-1" style="outline: none;" role="img" aria-label="Planet of the Apes / 猿の惑星, 0. Wonder Future."></path><path fill="rgb(241, 241, 239)" fill-opacity=" 1" d="M 14.5 562.5 L 22.5 562.5 A 2 2 0 0 1 22.5 562.5 L 22.5 562.5 A 0 0 0 0 1 22.5 562.5 L 22.5 562.5 A 0 0 0 0 1 14.5 562.5 L 14.5 562.5 A 2 2 0 0 1 14.5 562.5 Z" stroke="white" stroke-width="0.5" opacity="1" filter="none" class="highcharts-point highcharts-color-0" tabindex="-1" style="outline: none;" role="img" aria-label="No Wonder Future, 0. Wonder Future."></path></g><g class="highcharts-markers highcharts-series-0 highcharts-bar-series highcharts-color-0" data-z-index="0.1" opacity="1" transform="translate(228,20) scale(1 1)" clip-path="none" aria-hidden="true"></g></g><text x="400" text-anchor="middle" class="highcharts-title" data-z-index="4" style="font-size: 1.2em; color: rgb(51, 51, 51); font-weight: bold; fill: rgb(51, 51, 51);" y="21" aria-hidden="true"></text><text x="400" text-anchor="middle" class="highcharts-subtitle" data-z-index="4" style="color: rgb(102, 102, 102); font-size: 0.8em; fill: rgb(102, 102, 102);" y="22" aria-hidden="true"></text><text x="400" text-anchor="middle" class="highcharts-caption" data-z-index="4" style="color: rgba(55, 53, 47, 0.65); font-size: 12px; font-weight: normal; fill: rgba(55, 53, 47, 0.65);" y="497" aria-hidden="true"></text><g class="highcharts-data-labels highcharts-series-0 highcharts-bar-series highcharts-color-0" data-z-index="6" opacity="1" transform="translate(228,20) scale(1 1)" aria-hidden="true"><g class="highcharts-label highcharts-data-label highcharts-data-label-color-0" data-z-index="1" filter="none" transform="translate(449,6)"><text x="5" data-z-index="1" y="17" style="color: rgba(55, 53, 47, 0.65); font-size: 12px; font-weight: normal; fill: rgba(55, 53, 47, 0.65);">32</text></g><g class="highcharts-label highcharts-data-label highcharts-data-label-color-0" data-z-index="1" filter="none" transform="translate(252,43)"><text x="5" data-z-index="1" y="17" style="color: rgba(55, 53, 47, 0.65); font-size: 12px; font-weight: normal; fill: rgba(55, 53, 47, 0.65);">18</text></g><g class="highcharts-label highcharts-data-label highcharts-data-label-color-0" data-z-index="1" filter="none" transform="translate(196,80)"><text x="5" data-z-index="1" y="17" style="color: rgba(55, 53, 47, 0.65); font-size: 12px; font-weight: normal; fill: rgba(55, 53, 47, 0.65);">14</text></g><g class="highcharts-label highcharts-data-label highcharts-data-label-color-0" data-z-index="1" filter="none" transform="translate(182,116)"><text x="5" data-z-index="1" y="17" style="color: rgba(55, 53, 47, 0.65); font-size: 12px; font-weight: normal; fill: rgba(55, 53, 47, 0.65);">13</text></g><g class="highcharts-label highcharts-data-label highcharts-data-label-color-0" data-z-index="1" filter="none" transform="translate(168,153)"><text x="5" data-z-index="1" y="17" style="color: rgba(55, 53, 47, 0.65); font-size: 12px; font-weight: normal; fill: rgba(55, 53, 47, 0.65);">12</text></g><g class="highcharts-label highcharts-data-label highcharts-data-label-color-0" data-z-index="1" filter="none" transform="translate(139,190)"><text x="5" data-z-index="1" y="17" style="color: rgba(55, 53, 47, 0.65); font-size: 12px; font-weight: normal; fill: rgba(55, 53, 47, 0.65);">10</text></g><g class="highcharts-label highcharts-data-label highcharts-data-label-color-0" data-z-index="1" filter="none" transform="translate(139,227)"><text x="5" data-z-index="1" y="17" style="color: rgba(55, 53, 47, 0.65); font-size: 12px; font-weight: normal; fill: rgba(55, 53, 47, 0.65);">10</text></g><g class="highcharts-label highcharts-data-label highcharts-data-label-color-0" data-z-index="1" filter="none" transform="translate(69,263)"><text x="5" data-z-index="1" y="17" style="color: rgba(55, 53, 47, 0.65); font-size: 12px; font-weight: normal; fill: rgba(55, 53, 47, 0.65);">5</text></g><g class="highcharts-label highcharts-data-label highcharts-data-label-color-0" data-z-index="1" filter="none" transform="translate(13,300)"><text x="5" data-z-index="1" y="17" style="color: rgba(55, 53, 47, 0.65); font-size: 12px; font-weight: normal; fill: rgba(55, 53, 47, 0.65);">1</text></g><g class="highcharts-label highcharts-data-label highcharts-data-label-color-0" data-z-index="1" filter="none" transform="translate(13,337)"><text x="5" data-z-index="1" y="17" style="color: rgba(55, 53, 47, 0.65); font-size: 12px; font-weight: normal; fill: rgba(55, 53, 47, 0.65);">1</text></g><g class="highcharts-label highcharts-data-label highcharts-data-label-color-0" data-z-index="1" filter="none" transform="translate(-1,374)"><text x="5" data-z-index="1" y="17" style="color: rgba(55, 53, 47, 0.65); font-size: 12px; font-weight: normal; fill: rgba(55, 53, 47, 0.65);">0</text></g><g class="highcharts-label highcharts-data-label highcharts-data-label-color-0" data-z-index="1" filter="none" transform="translate(-1,410)"><text x="5" data-z-index="1" y="17" style="color: rgba(55, 53, 47, 0.65); font-size: 12px; font-weight: normal; fill: rgba(55, 53, 47, 0.65);">0</text></g></g><g class="highcharts-axis-labels highcharts-yaxis-labels" data-z-index="7" aria-hidden="true"><text x="228" style="color: rgba(55, 53, 47, 0.65); cursor: default; font-size: 12px; fill: rgba(55, 53, 47, 0.65);" text-anchor="middle" transform="translate(0,0)" y="481" opacity="1">0</text><text x="368.5" style="color: rgba(55, 53, 47, 0.65); cursor: default; font-size: 12px; fill: rgba(55, 53, 47, 0.65);" text-anchor="middle" transform="translate(0,0)" y="481" opacity="1">10</text><text x="509" style="color: rgba(55, 53, 47, 0.65); cursor: default; font-size: 12px; fill: rgba(55, 53, 47, 0.65);" text-anchor="middle" transform="translate(0,0)" y="481" opacity="1">20</text><text x="649.5" style="color: rgba(55, 53, 47, 0.65); cursor: default; font-size: 12px; fill: rgba(55, 53, 47, 0.65);" text-anchor="middle" transform="translate(0,0)" y="481" opacity="1">30</text><text x="784.5" style="color: rgba(55, 53, 47, 0.65); cursor: default; font-size: 12px; fill: rgba(55, 53, 47, 0.65);" text-anchor="middle" transform="translate(0,0)" y="481" opacity="1">40</text></g><g class="highcharts-axis-labels highcharts-xaxis-labels" data-z-index="7" aria-hidden="true"><text x="220" style="color: rgba(55, 53, 47, 0.65); cursor: default; font-size: 12px; overflow: hidden; fill: rgba(55, 53, 47, 0.65);" text-anchor="end" transform="translate(0,0)" y="42" opacity="1">Standard / スタンダード</text><text x="220" style="color: rgba(55, 53, 47, 0.65); cursor: default; font-size: 12px; overflow: hidden; fill: rgba(55, 53, 47, 0.65);" text-anchor="end" transform="translate(0,0)" y="79" opacity="1">Easter / 復活祭</text><text x="220" style="color: rgba(55, 53, 47, 0.65); cursor: default; font-size: 12px; overflow: hidden; fill: rgba(55, 53, 47, 0.65);" text-anchor="end" transform="translate(0,0)" y="116" opacity="1">Wonder Future / ワンダーフューチャー</text><text x="220" style="color: rgba(55, 53, 47, 0.65); cursor: default; font-size: 12px; overflow: hidden; fill: rgba(55, 53, 47, 0.65);" text-anchor="end" transform="translate(0,0)" y="153" opacity="1">Opera Glasses / オペラグラス</text><text x="220" style="color: rgba(55, 53, 47, 0.65); cursor: default; font-size: 12px; overflow: hidden; fill: rgba(55, 53, 47, 0.65);" text-anchor="end" transform="translate(0,0)" y="189" opacity="1">Eternal Sunshine / 永遠の陽光</text><text x="220" style="color: rgba(55, 53, 47, 0.65); cursor: default; font-size: 12px; overflow: hidden; fill: rgba(55, 53, 47, 0.65);" text-anchor="end" transform="translate(0,0)" y="226" opacity="1">Little Lennon / 小さなレノン</text><text x="220" style="color: rgba(55, 53, 47, 0.65); cursor: default; font-size: 12px; overflow: hidden; fill: rgba(55, 53, 47, 0.65);" text-anchor="end" transform="translate(0,0)" y="263" opacity="1">Winner and Loser / 勝者と敗者</text><text x="220" style="color: rgba(55, 53, 47, 0.65); cursor: default; font-size: 12px; overflow: hidden; fill: rgba(55, 53, 47, 0.65);" text-anchor="end" transform="translate(0,0)" y="300" opacity="1">Signal on the Street / 街頭のシグナル</text><text x="220" style="color: rgba(55, 53, 47, 0.65); cursor: default; font-size: 12px; overflow: hidden; fill: rgba(55, 53, 47, 0.65);" text-anchor="end" transform="translate(0,0)" y="336" opacity="1">Caterpillar / 芋虫</text><text x="220" style="color: rgba(55, 53, 47, 0.65); cursor: default; font-size: 12px; overflow: hidden; fill: rgba(55, 53, 47, 0.65);" text-anchor="end" transform="translate(0,0)" y="373" opacity="1">Prisoner in a Frame / 額の中の囚人</text><text x="220" style="color: rgba(55, 53, 47, 0.65); cursor: default; font-size: 12px; overflow: hidden; fill: rgba(55, 53, 47, 0.65);" text-anchor="end" transform="translate(0,0)" y="410" opacity="1">Planet of the Apes / 猿の惑星</text><text x="220" style="color: rgba(55, 53, 47, 0.65); cursor: default; font-size: 12px; overflow: hidden; fill: rgba(55, 53, 47, 0.65);" text-anchor="end" transform="translate(0,0)" y="447" opacity="1">No Wonder Future</text></g></svg>